<mxfile host="app.diagrams.net" modified="2021-02-26T01:20:39.654Z" agent="5.0 (Windows NT 10.0; Win64; x64) AppleWebKit/537.36 (KHTML, like Gecko) Chrome/88.0.4324.150 Safari/537.36" etag="CnlW8PC6wMMuN14c_Oyj" version="14.4.3" type="github">
  <diagram id="kgpKYQtTHZ0yAKxKKP6v" name="Page-1">
    <mxGraphModel dx="782" dy="469" grid="1" gridSize="10" guides="1" tooltips="1" connect="1" arrows="1" fold="1" page="1" pageScale="1" pageWidth="850" pageHeight="1100" math="0" shadow="0">
      <root>
        <mxCell id="0" />
        <mxCell id="1" parent="0" />
        <mxCell id="3nuBFxr9cyL0pnOWT2aG-1" value="itrader" style="shape=umlLifeline;perimeter=lifelinePerimeter;container=1;collapsible=0;recursiveResize=0;rounded=0;shadow=0;strokeWidth=1;" parent="1" vertex="1">
          <mxGeometry x="285" y="150" width="100" height="380" as="geometry" />
        </mxCell>
        <mxCell id="3nuBFxr9cyL0pnOWT2aG-5" value="UUAS" style="shape=umlLifeline;perimeter=lifelinePerimeter;container=1;collapsible=0;recursiveResize=0;rounded=0;shadow=0;strokeWidth=1;" parent="1" vertex="1">
          <mxGeometry x="465" y="150" width="100" height="380" as="geometry" />
        </mxCell>
        <mxCell id="3nuBFxr9cyL0pnOWT2aG-7" value="返回身份绑定结果" style="verticalAlign=bottom;endArrow=open;dashed=1;endSize=8;exitX=0;exitY=0.95;shadow=0;strokeWidth=1;entryX=0.493;entryY=0.884;entryDx=0;entryDy=0;entryPerimeter=0;" parent="1" edge="1">
          <mxGeometry relative="1" as="geometry">
            <mxPoint x="334.29999999999995" y="488.9200000000001" as="targetPoint" />
            <mxPoint x="510" y="489" as="sourcePoint" />
          </mxGeometry>
        </mxCell>
        <mxCell id="3nuBFxr9cyL0pnOWT2aG-8" value="请求发送验证码" style="verticalAlign=bottom;endArrow=block;shadow=0;strokeWidth=1;exitX=0.49;exitY=0.403;exitDx=0;exitDy=0;exitPerimeter=0;" parent="1" edge="1">
          <mxGeometry relative="1" as="geometry">
            <mxPoint x="334" y="260.72" as="sourcePoint" />
            <mxPoint x="515" y="261" as="targetPoint" />
          </mxGeometry>
        </mxCell>
        <mxCell id="0KViY8RyU-6lB-GwxyQh-7" value="Actor" style="shape=umlActor;verticalLabelPosition=bottom;verticalAlign=top;html=1;outlineConnect=0;" vertex="1" parent="1">
          <mxGeometry x="150" y="130" width="30" height="60" as="geometry" />
        </mxCell>
        <mxCell id="0KViY8RyU-6lB-GwxyQh-9" value="点击发送验证码" style="verticalAlign=bottom;endArrow=block;shadow=0;strokeWidth=1;" edge="1" parent="1">
          <mxGeometry relative="1" as="geometry">
            <mxPoint x="170" y="240" as="sourcePoint" />
            <mxPoint x="336" y="240" as="targetPoint" />
            <Array as="points">
              <mxPoint x="336" y="240" />
            </Array>
          </mxGeometry>
        </mxCell>
        <mxCell id="0KViY8RyU-6lB-GwxyQh-10" value="" style="endArrow=none;dashed=1;html=1;" edge="1" parent="1">
          <mxGeometry width="50" height="50" relative="1" as="geometry">
            <mxPoint x="170" y="528.6206896551724" as="sourcePoint" />
            <mxPoint x="170" y="220" as="targetPoint" />
          </mxGeometry>
        </mxCell>
        <mxCell id="0KViY8RyU-6lB-GwxyQh-11" value="返回验证码" style="verticalAlign=bottom;endArrow=open;dashed=1;endSize=8;exitX=0;exitY=0.95;shadow=0;strokeWidth=1;" edge="1" parent="1">
          <mxGeometry relative="1" as="geometry">
            <mxPoint x="170" y="291" as="targetPoint" />
            <mxPoint x="514" y="291" as="sourcePoint" />
          </mxGeometry>
        </mxCell>
        <mxCell id="0KViY8RyU-6lB-GwxyQh-12" value="输入验证码" style="verticalAlign=bottom;endArrow=block;shadow=0;strokeWidth=1;exitX=0.49;exitY=0.403;exitDx=0;exitDy=0;exitPerimeter=0;" edge="1" parent="1">
          <mxGeometry relative="1" as="geometry">
            <mxPoint x="170" y="323" as="sourcePoint" />
            <mxPoint x="334.5" y="323" as="targetPoint" />
          </mxGeometry>
        </mxCell>
        <mxCell id="0KViY8RyU-6lB-GwxyQh-13" value="身份绑定请求" style="verticalAlign=bottom;endArrow=block;shadow=0;strokeWidth=1;exitX=0.49;exitY=0.403;exitDx=0;exitDy=0;exitPerimeter=0;" edge="1" parent="1">
          <mxGeometry relative="1" as="geometry">
            <mxPoint x="335" y="343" as="sourcePoint" />
            <mxPoint x="516" y="343.28" as="targetPoint" />
          </mxGeometry>
        </mxCell>
        <mxCell id="0KViY8RyU-6lB-GwxyQh-14" value="return UAFRequest" style="verticalAlign=bottom;endArrow=block;shadow=0;strokeWidth=1;" edge="1" parent="1">
          <mxGeometry relative="1" as="geometry">
            <mxPoint x="514.5" y="379" as="sourcePoint" />
            <mxPoint x="334.92857142857144" y="379" as="targetPoint" />
            <Array as="points">
              <mxPoint x="440" y="379" />
            </Array>
          </mxGeometry>
        </mxCell>
        <mxCell id="0KViY8RyU-6lB-GwxyQh-15" value="调起手机生物控件" style="verticalAlign=bottom;endArrow=block;shadow=0;strokeWidth=1;" edge="1" parent="1">
          <mxGeometry relative="1" as="geometry">
            <mxPoint x="335" y="403" as="sourcePoint" />
            <mxPoint x="170" y="403" as="targetPoint" />
            <Array as="points">
              <mxPoint x="270.19" y="403" />
            </Array>
          </mxGeometry>
        </mxCell>
        <mxCell id="0KViY8RyU-6lB-GwxyQh-16" value="录入指纹" style="verticalAlign=bottom;endArrow=block;shadow=0;strokeWidth=1;exitX=0.49;exitY=0.403;exitDx=0;exitDy=0;exitPerimeter=0;" edge="1" parent="1">
          <mxGeometry relative="1" as="geometry">
            <mxPoint x="170" y="433" as="sourcePoint" />
            <mxPoint x="334.5" y="433" as="targetPoint" />
          </mxGeometry>
        </mxCell>
        <mxCell id="0KViY8RyU-6lB-GwxyQh-17" value="return UAFResponse" style="verticalAlign=bottom;endArrow=open;dashed=1;endSize=8;exitX=0.493;exitY=0.833;shadow=0;strokeWidth=1;exitDx=0;exitDy=0;exitPerimeter=0;" edge="1" parent="1">
          <mxGeometry relative="1" as="geometry">
            <mxPoint x="514.5" y="457.2099999999999" as="targetPoint" />
            <mxPoint x="334.30000000000007" y="457.2099999999999" as="sourcePoint" />
          </mxGeometry>
        </mxCell>
      </root>
    </mxGraphModel>
  </diagram>
</mxfile>
